PathFileType	4	(X/Y/Z)	C:/Users/opensim2020/Desktop/walking_exp_matlab/subject01_walking09_straight_03.trc	
DataRate	CameraRate	NumFrames	NumMarkers	Units	OrigDataRate	OrigDataStartFrame	OrigNumFrames	
100.00	100.00	5	43	mm	100.00	2931	348	
Frame#	Time	LFHD			RFHD			LBHD			RBHD			C7			T10			CLAV			STRN			RBAK			LSHO			LUPA			LELB			LFRM			LWRA			LWRB			LFIN			RSHO			RUPA			RELB			RFRM			RWRA			RWRB			RFIN			LASI			RASI			LPSI			RPSI			LTHI			LKNE			LTIB			LANK			LHEE			LTOE			RTHI			RKNE			RTIB			RANK			RHEE			RTOE			*39			*40			*41			*42			
		X1	Y1	Z1	X2	Y2	Z2	X3	Y3	Z3	X4	Y4	Z4	X5	Y5	Z5	X6	Y6	Z6	X7	Y7	Z7	X8	Y8	Z8	X9	Y9	Z9	X10	Y10	Z10	X11	Y11	Z11	X12	Y12	Z12	X13	Y13	Z13	X14	Y14	Z14	X15	Y15	Z15	X16	Y16	Z16	X17	Y17	Z17	X18	Y18	Z18	X19	Y19	Z19	X20	Y20	Z20	X21	Y21	Z21	X22	Y22	Z22	X23	Y23	Z23	X24	Y24	Z24	X25	Y25	Z25	X26	Y26	Z26	X27	Y27	Z27	X28	Y28	Z28	X29	Y29	Z29	X30	Y30	Z30	X31	Y31	Z31	X32	Y32	Z32	X33	Y33	Z33	X34	Y34	Z34	X35	Y35	Z35	X36	Y36	Z36	X37	Y37	Z37	X38	Y38	Z38	X39	Y39	Z39	X40	Y40	Z40	X41	Y41	Z41	X42	Y42	Z42	X43	Y43	Z43	

88	0.870	-1134.17493	-611.13574	1672.56470	-1021.66498	-602.10669	1681.35156	-1129.04517	-716.81482	1605.60974	-1009.21350	-710.02264	1612.96021	-1088.05737	-728.84082	1427.75879	-1079.47717	-768.75134	1136.54736	-1081.49329	-583.62872	1361.32471	-1087.48035	-543.41528	1204.35132	-1011.72827	-786.73389	1234.07971	-1243.21289	-636.47382	1392.88379	-1331.19470	-622.29218	1212.46118	-1335.14819	-591.70172	1063.58728	-1347.28943	-515.97681	975.24976	-1309.17163	-409.33340	893.15051	-1343.26746	-452.97504	870.54425	-1342.60730	-383.47256	822.27997	-932.27625	-652.92267	1386.63574	-833.48474	-720.57428	1190.25012	-825.34918	-723.89050	1066.38147	-789.14642	-702.98267	949.49841	-802.08679	-626.90228	828.41388	-763.82123	-671.77802	832.92847	-763.03455	-637.84326	752.65479	-1180.68164	-601.94727	922.14856	-963.49683	-598.92621	936.02747	-1124.66736	-787.11560	937.58801	-979.84381	-783.71271	943.74689	-1218.68420	-650.57764	588.67920	-1199.21692	-672.47955	454.98834	-1203.25659	-745.85101	278.16705	-1142.34924	-799.86646	67.93735	-1089.23743	-847.57910	40.99966	-1149.66577	-654.39404	30.26799	-884.73486	-586.16852	610.84442	-907.82306	-528.41449	463.23267	-895.60260	-531.38293	291.05042	-932.38605	-481.49533	85.51158	-988.01837	-507.98080	33.71304	-917.27020	-338.19000	82.85860	-1044.43274	-619.66327	1711.71619	-3102.90894	1972.80029	1024.63831	-3138.46313	2013.13269	1022.18927			 
89	0.880	-1133.34949	-604.96967	1671.95837	-1020.79785	-596.13745	1680.95056	-1128.13574	-710.78644	1605.45886	-1008.03888	-703.48346	1612.58630	-1087.19543	-723.49719	1427.34583	-1078.51038	-762.76141	1135.94592	-1080.67505	-577.87616	1360.78247	-1086.90698	-537.51050	1203.90527	-1010.94824	-780.76331	1233.35815	-1242.42456	-630.82007	1392.45068	-1330.19043	-616.61584	1211.86121	-1334.03064	-585.33282	1063.15833	-1346.07312	-509.49142	974.99640	-1308.02612	-402.95511	893.10822	-1342.01282	-446.38751	870.34570	-1341.29749	-376.82874	822.17120	-931.40961	-647.40063	1385.93738	-832.85840	-714.68970	1189.50867	-824.97498	-718.29620	1065.64868	-788.81921	-698.07294	948.74738	-801.60065	-622.59265	827.29944	-763.50714	-667.51361	831.94482	-762.63202	-634.17578	751.59082	-1180.58765	-596.18024	921.64038	-963.40875	-592.28748	935.37714	-1123.55994	-781.13892	936.92834	-978.71857	-777.23224	943.19684	-1218.36108	-647.03424	588.43201	-1199.15833	-669.73822	454.73975	-1203.19958	-744.09338	278.36292	-1142.47278	-799.61377	68.38387	-1089.24268	-847.43481	41.67512	-1149.80591	-654.34253	30.34462	-884.42450	-580.84515	610.16901	-907.63269	-522.10931	463.11237	-894.90558	-521.96759	290.90231	-931.34485	-468.82944	86.29678	-986.67072	-494.95148	33.73146	-917.41302	-325.08472	85.56461	-1043.55432	-613.42157	1711.25476	-3102.29590	1972.95776	1024.73486	-3138.29614	2013.12427	1022.13843			 
90	0.890	-1132.45703	-598.83325	1671.57019	-1019.73596	-589.47552	1680.26050	-1127.16663	-704.75903	1605.28870	-1006.98254	-697.49475	1612.44958	-1086.32080	-717.70862	1426.75476	-1077.50415	-756.75629	1135.30078	-1079.43091	-572.16388	1360.25867	-1086.26074	-531.64478	1203.49573	-1010.11871	-774.77979	1232.63354	-1241.50122	-625.14496	1391.91626	-1329.17065	-611.04626	1211.23718	-1332.79858	-579.12390	1062.74878	-1344.85852	-503.16296	974.65228	-1306.60962	-396.44138	892.79126	-1340.73914	-440.00079	870.05035	-1339.98181	-370.38901	821.97430	-930.51184	-641.17218	1385.23315	-832.05939	-708.84406	1188.79492	-824.51477	-712.76923	1064.96802	-788.39526	-693.01794	948.00049	-800.97021	-618.10352	826.16095	-763.07465	-663.50580	831.26862	-762.11310	-629.96674	750.49103	-1180.36682	-590.52551	921.13434	-963.27893	-585.60706	934.79858	-1122.33423	-775.13837	936.33850	-977.44159	-770.60187	942.60840	-1218.00928	-643.29840	588.14386	-1198.98218	-666.85822	454.47015	-1203.20825	-742.36060	278.57877	-1142.60876	-799.33234	68.87082	-1089.30261	-847.34131	42.33879	-1149.74756	-654.29999	30.19342	-883.95197	-574.04321	609.21667	-907.77191	-515.97278	462.62149	-894.27704	-513.09467	290.81976	-930.35297	-456.98239	86.71463	-985.32703	-483.58920	33.97627	-917.48737	-313.14572	87.48287	-1042.56958	-606.96509	1710.67542	-3102.67041	1972.86743	1024.10376	-3138.64868	2013.08191	1022.07947			 
91	0.900	-1131.13440	-592.43640	1670.94922	-1018.64325	-583.25238	1679.62366	-1125.97693	-698.71295	1605.09375	-1005.91705	-691.32764	1612.10596	-1085.24097	-711.63049	1426.11816	-1076.48657	-750.59680	1134.62915	-1078.93542	-566.31488	1359.86853	-1085.52063	-525.64014	1203.09705	-1009.23938	-768.76544	1231.83484	-1240.66492	-619.44092	1391.45459	-1327.99182	-605.59149	1210.56458	-1331.52930	-573.07318	1062.27100	-1343.52234	-496.98785	974.29498	-1305.29114	-390.20456	892.52515	-1339.36218	-433.77438	869.69080	-1338.64954	-364.08533	821.67926	-929.39136	-635.51764	1385.02991	-831.24274	-703.02789	1188.02844	-823.97638	-707.11121	1064.29553	-787.90790	-687.90491	947.24829	-800.29608	-613.34741	825.11194	-762.61523	-658.16406	830.17926	-761.72900	-626.57452	749.40955	-1179.94019	-584.85303	920.58807	-962.94928	-578.77301	934.15887	-1120.98035	-769.08508	935.82080	-976.13281	-763.88831	941.83453	-1217.50427	-639.37360	587.88751	-1198.83484	-663.82489	454.28265	-1203.10742	-740.51379	278.95020	-1142.66003	-799.08325	69.48651	-1089.41907	-847.19330	43.15612	-1149.81628	-654.25500	30.15595	-883.48413	-567.90820	608.53485	-908.07965	-509.88229	462.14178	-893.68622	-504.91977	290.68420	-929.54907	-446.77643	86.86345	-984.13641	-472.49683	33.61038	-917.73047	-302.40576	88.71249	-1041.09106	-600.53510	1710.43616	-3102.01709	1973.18115	1024.03149	-3138.43652	2013.06445	1022.12500			 
92	0.910	-1130.30945	-586.41968	1670.53296	-1017.60968	-576.99487	1679.01160	-1124.85876	-692.67139	1604.84277	-1004.78851	-685.27142	1611.92834	-1084.21216	-705.82959	1425.53918	-1075.29663	-744.45117	1134.00977	-1077.66309	-560.53802	1359.36975	-1084.69470	-519.59222	1202.67944	-1008.32758	-762.70508	1231.11316	-1239.81665	-613.79559	1391.13538	-1326.88855	-600.05164	1210.00281	-1330.25439	-567.05432	1061.81592	-1342.18347	-490.93356	973.88605	-1303.89417	-384.10065	892.13586	-1337.90332	-427.70425	869.29138	-1337.16577	-357.94983	821.34790	-928.63873	-629.50385	1383.96460	-830.34503	-697.18616	1187.32788	-823.40753	-701.32526	1063.57642	-787.37573	-682.68549	946.47876	-799.51172	-608.37378	824.08044	-761.96204	-653.87585	829.35608	-761.10535	-621.85211	748.35724	-1179.43188	-578.92834	920.08258	-962.46918	-571.96698	933.50000	-1119.66016	-763.00818	935.34583	-974.66901	-757.94751	941.69958	-1217.03027	-635.29370	587.63324	-1198.62109	-660.64618	454.10580	-1203.05261	-738.60803	279.33640	-1142.81812	-798.71765	70.12009	-1089.53015	-847.18561	44.25569	-1149.97729	-654.22589	30.24381	-883.11884	-560.73914	608.26294	-907.94409	-502.97141	461.67465	-893.30927	-496.95337	290.18399	-928.87659	-436.94061	86.66518	-983.17993	-464.29382	34.25099	-918.04230	-292.87360	89.37264	-1040.25806	-594.26221	1709.79907	-3102.14282	1973.12451	1024.06836	-3138.41699	2013.17749	1022.17181			 
